# Wavefront OBJ file automatically generated by Tiled2Unity

# Vertices (Count = 273)
v 0 -45 0
v -45 -45 0
v -45 0 0
v 0 0 0
v -90 -45 0
v -90 0 0
v -135 -45 0
v -135 0 0
v -180 -45 0
v -180 0 0
v -225 -45 0
v -225 0 0
v -270 -45 0
v -270 0 0
v -315 -45 0
v -315 0 0
v -360 -45 0
v -360 0 0
v -405 -45 0
v -405 0 0
v -450 -45 0
v -450 0 0
v -495 -45 0
v -495 0 0
v -540 -45 0
v -540 0 0
v -585 -45 0
v -585 0 0
v -630 -45 0
v -630 0 0
v -675 -45 0
v -675 0 0
v -720 -45 0
v -720 0 0
v -765 -45 0
v -765 0 0
v -810 -45 0
v -810 0 0
v -855 -45 0
v -855 0 0
v -900 -45 0
v -900 0 0
v 0 -90 0
v -45 -90 0
v -90 -90 0
v -135 -90 0
v -180 -90 0
v -225 -90 0
v -270 -90 0
v -315 -90 0
v -360 -90 0
v -405 -90 0
v -450 -90 0
v -495 -90 0
v -540 -90 0
v -585 -90 0
v -630 -90 0
v -675 -90 0
v -720 -90 0
v -765 -90 0
v -810 -90 0
v -855 -90 0
v -900 -90 0
v 0 -135 0
v -45 -135 0
v -90 -135 0
v -135 -135 0
v -180 -135 0
v -225 -135 0
v -270 -135 0
v -315 -135 0
v -360 -135 0
v -405 -135 0
v -450 -135 0
v -495 -135 0
v -540 -135 0
v -585 -135 0
v -630 -135 0
v -675 -135 0
v -720 -135 0
v -765 -135 0
v -810 -135 0
v -855 -135 0
v -900 -135 0
v 0 -180 0
v -45 -180 0
v -90 -180 0
v -135 -180 0
v -180 -180 0
v -225 -180 0
v -270 -180 0
v -315 -180 0
v -360 -180 0
v -405 -180 0
v -450 -180 0
v -495 -180 0
v -540 -180 0
v -585 -180 0
v -630 -180 0
v -675 -180 0
v -720 -180 0
v -765 -180 0
v -810 -180 0
v -855 -180 0
v -900 -180 0
v 0 -225 0
v -45 -225 0
v -90 -225 0
v -135 -225 0
v -180 -225 0
v -225 -225 0
v -270 -225 0
v -315 -225 0
v -360 -225 0
v -405 -225 0
v -450 -225 0
v -495 -225 0
v -540 -225 0
v -585 -225 0
v -630 -225 0
v -675 -225 0
v -720 -225 0
v -765 -225 0
v -810 -225 0
v -855 -225 0
v -900 -225 0
v 0 -270 0
v -45 -270 0
v -90 -270 0
v -135 -270 0
v -180 -270 0
v -225 -270 0
v -270 -270 0
v -315 -270 0
v -360 -270 0
v -405 -270 0
v -450 -270 0
v -495 -270 0
v -540 -270 0
v -585 -270 0
v -630 -270 0
v -675 -270 0
v -720 -270 0
v -765 -270 0
v -810 -270 0
v -855 -270 0
v -900 -270 0
v 0 -315 0
v -45 -315 0
v -90 -315 0
v -135 -315 0
v -180 -315 0
v -225 -315 0
v -270 -315 0
v -315 -315 0
v -360 -315 0
v -405 -315 0
v -450 -315 0
v -495 -315 0
v -540 -315 0
v -585 -315 0
v -630 -315 0
v -675 -315 0
v -720 -315 0
v -765 -315 0
v -810 -315 0
v -855 -315 0
v -900 -315 0
v 0 -360 0
v -45 -360 0
v -90 -360 0
v -135 -360 0
v -180 -360 0
v -225 -360 0
v -270 -360 0
v -315 -360 0
v -360 -360 0
v -405 -360 0
v -450 -360 0
v -495 -360 0
v -540 -360 0
v -585 -360 0
v -630 -360 0
v -675 -360 0
v -720 -360 0
v -765 -360 0
v -810 -360 0
v -855 -360 0
v -900 -360 0
v 0 -405 0
v -45 -405 0
v -90 -405 0
v -135 -405 0
v -180 -405 0
v -225 -405 0
v -270 -405 0
v -315 -405 0
v -360 -405 0
v -405 -405 0
v -450 -405 0
v -495 -405 0
v -540 -405 0
v -585 -405 0
v -630 -405 0
v -675 -405 0
v -720 -405 0
v -765 -405 0
v -810 -405 0
v -855 -405 0
v -900 -405 0
v 0 -450 0
v -45 -450 0
v -90 -450 0
v -135 -450 0
v -180 -450 0
v -225 -450 0
v -270 -450 0
v -315 -450 0
v -360 -450 0
v -405 -450 0
v -450 -450 0
v -495 -450 0
v -540 -450 0
v -585 -450 0
v -630 -450 0
v -675 -450 0
v -720 -450 0
v -765 -450 0
v -810 -450 0
v -855 -450 0
v -900 -450 0
v 0 -495 0
v -45 -495 0
v -90 -495 0
v -135 -495 0
v -180 -495 0
v -225 -495 0
v -270 -495 0
v -315 -495 0
v -360 -495 0
v -405 -495 0
v -450 -495 0
v -495 -495 0
v -540 -495 0
v -585 -495 0
v -630 -495 0
v -675 -495 0
v -720 -495 0
v -765 -495 0
v -810 -495 0
v -855 -495 0
v -900 -495 0
v 0 -540 0
v -45 -540 0
v -90 -540 0
v -135 -540 0
v -180 -540 0
v -225 -540 0
v -270 -540 0
v -315 -540 0
v -360 -540 0
v -405 -540 0
v -450 -540 0
v -495 -540 0
v -540 -540 0
v -585 -540 0
v -630 -540 0
v -675 -540 0
v -720 -540 0
v -765 -540 0
v -810 -540 0
v -855 -540 0
v -900 -540 0

# Texture Coorindates (Count = 64)
vt 0.0001220703 0.0001220703
vt 0.9998779 0.0001220703
vt 0.9998779 0.9998779
vt 0.0001220703 0.9998779
vt 0.0001220703 0.7501221
vt 0.2498779 0.7501221
vt 0.2498779 0.9998779
vt 0.2501221 0.7501221
vt 0.4998779 0.7501221
vt 0.4998779 0.9998779
vt 0.2501221 0.9998779
vt 0.5001221 0.7501221
vt 0.7498779 0.7501221
vt 0.7498779 0.9998779
vt 0.5001221 0.9998779
vt 0.7501221 0.7501221
vt 0.9998779 0.7501221
vt 0.7501221 0.9998779
vt 0.0001220703 0.5001221
vt 0.2498779 0.5001221
vt 0.2498779 0.7498779
vt 0.0001220703 0.7498779
vt 0.2501221 0.5001221
vt 0.4998779 0.5001221
vt 0.4998779 0.7498779
vt 0.2501221 0.7498779
vt 0.5001221 0.5001221
vt 0.7498779 0.5001221
vt 0.7498779 0.7498779
vt 0.5001221 0.7498779
vt 0.7501221 0.5001221
vt 0.9998779 0.5001221
vt 0.9998779 0.7498779
vt 0.7501221 0.7498779
vt 0.5001221 0.2501221
vt 0.7498779 0.2501221
vt 0.7498779 0.4998779
vt 0.5001221 0.4998779
vt 0.7501221 0.2501221
vt 0.9998779 0.2501221
vt 0.9998779 0.4998779
vt 0.7501221 0.4998779
vt 0.4998779 0.0001220703
vt 0.4998779 0.4998779
vt 0.0001220703 0.4998779
vt 0.5001221 0.0001220703
vt 0.7498779 0.0001220703
vt 0.7498779 0.2498779
vt 0.5001221 0.2498779
vt 0.7501221 0.0001220703
vt 0.9998779 0.2498779
vt 0.7501221 0.2498779
vt 0.0001220703 0.2501221
vt 0.2498779 0.2501221
vt 0.2498779 0.4998779
vt 0.2501221 0.2501221
vt 0.4998779 0.2501221
vt 0.2501221 0.4998779
vt 0.2498779 0.0001220703
vt 0.2498779 0.2498779
vt 0.0001220703 0.2498779
vt 0.2501221 0.0001220703
vt 0.4998779 0.2498779
vt 0.2501221 0.2498779

# Normal
vn 0 0 -1

# Groups (Count = 4)
g mesh_[00]_[03]
f  1/1/1  2/2/1  3/3/1  4/4/1 
f  2/1/1  5/2/1  6/3/1  3/4/1 
f  5/1/1  7/2/1  8/3/1  6/4/1 
f  7/1/1  9/2/1  10/3/1  8/4/1 
f  9/1/1  11/2/1  12/3/1  10/4/1 
f  11/1/1  13/2/1  14/3/1  12/4/1 
f  13/1/1  15/2/1  16/3/1  14/4/1 
f  15/1/1  17/2/1  18/3/1  16/4/1 
f  17/1/1  19/2/1  20/3/1  18/4/1 
f  19/1/1  21/2/1  22/3/1  20/4/1 
f  21/1/1  23/2/1  24/3/1  22/4/1 
f  23/1/1  25/2/1  26/3/1  24/4/1 
f  25/1/1  27/2/1  28/3/1  26/4/1 
f  27/1/1  29/2/1  30/3/1  28/4/1 
f  29/1/1  31/2/1  32/3/1  30/4/1 
f  31/1/1  33/2/1  34/3/1  32/4/1 
f  33/1/1  35/2/1  36/3/1  34/4/1 
f  35/1/1  37/2/1  38/3/1  36/4/1 
f  37/1/1  39/2/1  40/3/1  38/4/1 
f  39/1/1  41/2/1  42/3/1  40/4/1 
f  43/1/1  44/2/1  2/3/1  1/4/1 
f  62/1/1  63/2/1  41/3/1  39/4/1 
f  64/1/1  65/2/1  44/3/1  43/4/1 
f  83/1/1  84/2/1  63/3/1  62/4/1 
f  85/1/1  86/2/1  65/3/1  64/4/1 
f  104/1/1  105/2/1  84/3/1  83/4/1 
f  106/1/1  107/2/1  86/3/1  85/4/1 
f  125/1/1  126/2/1  105/3/1  104/4/1 
f  127/1/1  128/2/1  107/3/1  106/4/1 
f  146/1/1  147/2/1  126/3/1  125/4/1 
f  148/1/1  149/2/1  128/3/1  127/4/1 
f  167/1/1  168/2/1  147/3/1  146/4/1 
f  169/1/1  170/2/1  149/3/1  148/4/1 
f  188/1/1  189/2/1  168/3/1  167/4/1 
f  190/1/1  191/2/1  170/3/1  169/4/1 
f  209/1/1  210/2/1  189/3/1  188/4/1 
f  211/1/1  212/2/1  191/3/1  190/4/1 
f  230/1/1  231/2/1  210/3/1  209/4/1 
f  232/1/1  233/2/1  212/3/1  211/4/1 
f  251/1/1  252/2/1  231/3/1  230/4/1 
f  253/1/1  254/2/1  233/3/1  232/4/1 
f  254/1/1  255/2/1  234/3/1  233/4/1 
f  255/1/1  256/2/1  235/3/1  234/4/1 
f  256/1/1  257/2/1  236/3/1  235/4/1 
f  257/1/1  258/2/1  237/3/1  236/4/1 
f  258/1/1  259/2/1  238/3/1  237/4/1 
f  259/1/1  260/2/1  239/3/1  238/4/1 
f  260/1/1  261/2/1  240/3/1  239/4/1 
f  261/1/1  262/2/1  241/3/1  240/4/1 
f  262/1/1  263/2/1  242/3/1  241/4/1 
f  263/1/1  264/2/1  243/3/1  242/4/1 
f  264/1/1  265/2/1  244/3/1  243/4/1 
f  265/1/1  266/2/1  245/3/1  244/4/1 
f  266/1/1  267/2/1  246/3/1  245/4/1 
f  267/1/1  268/2/1  247/3/1  246/4/1 
f  268/1/1  269/2/1  248/3/1  247/4/1 
f  269/1/1  270/2/1  249/3/1  248/4/1 
f  270/1/1  271/2/1  250/3/1  249/4/1 
f  271/1/1  272/2/1  251/3/1  250/4/1 
f  272/1/1  273/2/1  252/3/1  251/4/1 
g mesh_[00]_[02]
f  44/5/1  45/6/1  5/7/1  2/4/1 
f  45/8/1  46/9/1  7/10/1  5/11/1 
f  60/12/1  61/13/1  37/14/1  35/15/1 
f  61/16/1  62/17/1  39/3/1  37/18/1 
f  65/19/1  66/20/1  45/21/1  44/22/1 
f  66/23/1  67/24/1  46/25/1  45/26/1 
f  81/27/1  82/28/1  61/29/1  60/30/1 
f  82/31/1  83/32/1  62/33/1  61/34/1 
f  212/53/1  213/54/1  192/55/1  191/45/1 
f  213/56/1  214/57/1  193/44/1  192/58/1 
f  228/35/1  229/36/1  208/37/1  207/38/1 
f  229/39/1  230/40/1  209/41/1  208/42/1 
f  233/1/1  234/59/1  213/60/1  212/61/1 
f  234/62/1  235/43/1  214/63/1  213/64/1 
f  249/46/1  250/47/1  229/48/1  228/49/1 
f  250/50/1  251/2/1  230/51/1  229/52/1 
g mesh_[00]_[01]
f  46/12/1  47/13/1  9/14/1  7/15/1 
f  47/16/1  48/17/1  11/3/1  9/18/1 
f  48/12/1  49/13/1  13/14/1  11/15/1 
f  49/16/1  50/17/1  15/3/1  13/18/1 
f  50/12/1  51/13/1  17/14/1  15/15/1 
f  51/16/1  52/17/1  19/3/1  17/18/1 
f  52/12/1  53/13/1  21/14/1  19/15/1 
f  53/16/1  54/17/1  23/3/1  21/18/1 
f  54/12/1  55/13/1  25/14/1  23/15/1 
f  55/16/1  56/17/1  27/3/1  25/18/1 
f  56/12/1  57/13/1  29/14/1  27/15/1 
f  57/16/1  58/17/1  31/3/1  29/18/1 
f  58/12/1  59/13/1  33/14/1  31/15/1 
f  59/16/1  60/17/1  35/3/1  33/18/1 
f  67/27/1  68/28/1  47/29/1  46/30/1 
f  68/31/1  69/32/1  48/33/1  47/34/1 
f  69/27/1  70/28/1  49/29/1  48/30/1 
f  70/31/1  71/32/1  50/33/1  49/34/1 
f  71/27/1  72/28/1  51/29/1  50/30/1 
f  72/31/1  73/32/1  52/33/1  51/34/1 
f  73/27/1  74/28/1  53/29/1  52/30/1 
f  74/31/1  75/32/1  54/33/1  53/34/1 
f  75/27/1  76/28/1  55/29/1  54/30/1 
f  76/31/1  77/32/1  56/33/1  55/34/1 
f  77/27/1  78/28/1  57/29/1  56/30/1 
f  78/31/1  79/32/1  58/33/1  57/34/1 
f  79/27/1  80/28/1  59/29/1  58/30/1 
f  80/31/1  81/32/1  60/33/1  59/34/1 
f  86/5/1  87/6/1  66/7/1  65/4/1 
f  87/8/1  88/9/1  67/10/1  66/11/1 
f  102/35/1  103/36/1  82/37/1  81/38/1 
f  103/39/1  104/40/1  83/41/1  82/42/1 
f  107/19/1  108/20/1  87/21/1  86/22/1 
f  108/23/1  109/24/1  88/25/1  87/26/1 
f  123/46/1  124/47/1  103/48/1  102/49/1 
f  124/50/1  125/2/1  104/51/1  103/52/1 
f  128/5/1  129/6/1  108/7/1  107/4/1 
f  129/8/1  130/9/1  109/10/1  108/11/1 
f  144/35/1  145/36/1  124/37/1  123/38/1 
f  145/39/1  146/40/1  125/41/1  124/42/1 
f  149/19/1  150/20/1  129/21/1  128/22/1 
f  150/23/1  151/24/1  130/25/1  129/26/1 
f  165/46/1  166/47/1  145/48/1  144/49/1 
f  166/50/1  167/2/1  146/51/1  145/52/1 
f  170/5/1  171/6/1  150/7/1  149/4/1 
f  171/8/1  172/9/1  151/10/1  150/11/1 
f  186/35/1  187/36/1  166/37/1  165/38/1 
f  187/39/1  188/40/1  167/41/1  166/42/1 
f  191/19/1  192/20/1  171/21/1  170/22/1 
f  192/23/1  193/24/1  172/25/1  171/26/1 
f  207/46/1  208/47/1  187/48/1  186/49/1 
f  208/50/1  209/2/1  188/51/1  187/52/1 
f  214/53/1  215/54/1  194/55/1  193/45/1 
f  215/56/1  216/57/1  195/44/1  194/58/1 
f  216/53/1  217/54/1  196/55/1  195/45/1 
f  217/56/1  218/57/1  197/44/1  196/58/1 
f  218/53/1  219/54/1  198/55/1  197/45/1 
f  219/56/1  220/57/1  199/44/1  198/58/1 
f  220/53/1  221/54/1  200/55/1  199/45/1 
f  221/56/1  222/57/1  201/44/1  200/58/1 
f  222/53/1  223/54/1  202/55/1  201/45/1 
f  223/56/1  224/57/1  203/44/1  202/58/1 
f  224/53/1  225/54/1  204/55/1  203/45/1 
f  225/56/1  226/57/1  205/44/1  204/58/1 
f  226/53/1  227/54/1  206/55/1  205/45/1 
f  227/56/1  228/57/1  207/44/1  206/58/1 
f  235/1/1  236/59/1  215/60/1  214/61/1 
f  236/62/1  237/43/1  216/63/1  215/64/1 
f  237/1/1  238/59/1  217/60/1  216/61/1 
f  238/62/1  239/43/1  218/63/1  217/64/1 
f  239/1/1  240/59/1  219/60/1  218/61/1 
f  240/62/1  241/43/1  220/63/1  219/64/1 
f  241/1/1  242/59/1  221/60/1  220/61/1 
f  242/62/1  243/43/1  222/63/1  221/64/1 
f  243/1/1  244/59/1  223/60/1  222/61/1 
f  244/62/1  245/43/1  224/63/1  223/64/1 
f  245/1/1  246/59/1  225/60/1  224/61/1 
f  246/62/1  247/43/1  226/63/1  225/64/1 
f  247/1/1  248/59/1  227/60/1  226/61/1 
f  248/62/1  249/43/1  228/63/1  227/64/1 
g mesh_[00]_[00]
f  88/19/1  89/24/1  68/10/1  67/4/1 
f  89/27/1  90/32/1  69/3/1  68/15/1 
f  90/19/1  91/24/1  70/10/1  69/4/1 
f  91/27/1  92/32/1  71/3/1  70/15/1 
f  92/19/1  93/24/1  72/10/1  71/4/1 
f  93/27/1  94/32/1  73/3/1  72/15/1 
f  94/19/1  95/24/1  74/10/1  73/4/1 
f  95/27/1  96/32/1  75/3/1  74/15/1 
f  96/19/1  97/24/1  76/10/1  75/4/1 
f  97/27/1  98/32/1  77/3/1  76/15/1 
f  98/19/1  99/24/1  78/10/1  77/4/1 
f  99/27/1  100/32/1  79/3/1  78/15/1 
f  100/19/1  101/24/1  80/10/1  79/4/1 
f  101/27/1  102/32/1  81/3/1  80/15/1 
f  109/1/1  110/43/1  89/44/1  88/45/1 
f  110/46/1  111/2/1  90/41/1  89/38/1 
f  111/1/1  112/43/1  91/44/1  90/45/1 
f  112/46/1  113/2/1  92/41/1  91/38/1 
f  113/1/1  114/43/1  93/44/1  92/45/1 
f  114/46/1  115/2/1  94/41/1  93/38/1 
f  115/1/1  116/43/1  95/44/1  94/45/1 
f  116/46/1  117/2/1  96/41/1  95/38/1 
f  117/1/1  118/43/1  97/44/1  96/45/1 
f  118/46/1  119/2/1  98/41/1  97/38/1 
f  119/1/1  120/43/1  99/44/1  98/45/1 
f  120/46/1  121/2/1  100/41/1  99/38/1 
f  121/1/1  122/43/1  101/44/1  100/45/1 
f  122/46/1  123/2/1  102/41/1  101/38/1 
f  130/19/1  131/24/1  110/10/1  109/4/1 
f  131/27/1  132/32/1  111/3/1  110/15/1 
f  132/19/1  133/24/1  112/10/1  111/4/1 
f  133/27/1  134/32/1  113/3/1  112/15/1 
f  134/19/1  135/24/1  114/10/1  113/4/1 
f  135/27/1  136/32/1  115/3/1  114/15/1 
f  136/19/1  137/24/1  116/10/1  115/4/1 
f  137/27/1  138/32/1  117/3/1  116/15/1 
f  138/19/1  139/24/1  118/10/1  117/4/1 
f  139/27/1  140/32/1  119/3/1  118/15/1 
f  140/19/1  141/24/1  120/10/1  119/4/1 
f  141/27/1  142/32/1  121/3/1  120/15/1 
f  142/19/1  143/24/1  122/10/1  121/4/1 
f  143/27/1  144/32/1  123/3/1  122/15/1 
f  151/1/1  152/43/1  131/44/1  130/45/1 
f  152/46/1  153/2/1  132/41/1  131/38/1 
f  153/1/1  154/43/1  133/44/1  132/45/1 
f  154/46/1  155/2/1  134/41/1  133/38/1 
f  155/1/1  156/43/1  135/44/1  134/45/1 
f  156/46/1  157/2/1  136/41/1  135/38/1 
f  157/1/1  158/43/1  137/44/1  136/45/1 
f  158/46/1  159/2/1  138/41/1  137/38/1 
f  159/1/1  160/43/1  139/44/1  138/45/1 
f  160/46/1  161/2/1  140/41/1  139/38/1 
f  161/1/1  162/43/1  141/44/1  140/45/1 
f  162/46/1  163/2/1  142/41/1  141/38/1 
f  163/1/1  164/43/1  143/44/1  142/45/1 
f  164/46/1  165/2/1  144/41/1  143/38/1 
f  172/19/1  173/24/1  152/10/1  151/4/1 
f  173/27/1  174/32/1  153/3/1  152/15/1 
f  174/19/1  175/24/1  154/10/1  153/4/1 
f  175/27/1  176/32/1  155/3/1  154/15/1 
f  176/19/1  177/24/1  156/10/1  155/4/1 
f  177/27/1  178/32/1  157/3/1  156/15/1 
f  178/19/1  179/24/1  158/10/1  157/4/1 
f  179/27/1  180/32/1  159/3/1  158/15/1 
f  180/19/1  181/24/1  160/10/1  159/4/1 
f  181/27/1  182/32/1  161/3/1  160/15/1 
f  182/19/1  183/24/1  162/10/1  161/4/1 
f  183/27/1  184/32/1  163/3/1  162/15/1 
f  184/19/1  185/24/1  164/10/1  163/4/1 
f  185/27/1  186/32/1  165/3/1  164/15/1 
f  193/1/1  194/43/1  173/44/1  172/45/1 
f  194/46/1  195/2/1  174/41/1  173/38/1 
f  195/1/1  196/43/1  175/44/1  174/45/1 
f  196/46/1  197/2/1  176/41/1  175/38/1 
f  197/1/1  198/43/1  177/44/1  176/45/1 
f  198/46/1  199/2/1  178/41/1  177/38/1 
f  199/1/1  200/43/1  179/44/1  178/45/1 
f  200/46/1  201/2/1  180/41/1  179/38/1 
f  201/1/1  202/43/1  181/44/1  180/45/1 
f  202/46/1  203/2/1  182/41/1  181/38/1 
f  203/1/1  204/43/1  183/44/1  182/45/1 
f  204/46/1  205/2/1  184/41/1  183/38/1 
f  205/1/1  206/43/1  185/44/1  184/45/1 
f  206/46/1  207/2/1  186/41/1  185/38/1 
